# xmcd
#
# Track frame offsets:
#        150
#        22752
#        46577
#        68237
#        89210
#        109502
#        134980
#        155942
#        179290
#        202880
#
# Disc length: 2944 seconds
#
# Revision: 0
# Processed by: cddbd v1.5.1PL0 Copyright (c) Steve Scherf et al.
# Submitted via: ExactAudioCopy v0.95a5
#
DISCID=890b7e0a
DTITLE=Kelli Williams - Kelli Williams
DYEAR=1900
DGENRE=Blues
TTITLE0=Thank You
TTITLE1=Never Alone
TTITLE2=It's Gonna Be Alight
TTITLE3=I Wish
TTITLE4=Counting On You
TTITLE5=Holy Spirit
TTITLE6=Don't Ever Give Up (On Your Dream)
TTITLE7=Just Give Me Grace
TTITLE8=People Need The Road
TTITLE9=Omni
EXTD=
EXTT0=
EXTT1=
EXTT2=
EXTT3=
EXTT4=
EXTT5=
EXTT6=
EXTT7=
EXTT8=
EXTT9=
PLAYORDER=
